# xmcd
#
# Track frame offsets:
#	150
#	12225
#	30018
#	40488
#	55998
#	68782
#	80177
#	91023
#	106064
#	118135
#	135961
#	146431
#	161866
#	174649
#	186044
#	196883
#	223164
#
# Disc length: 2993 seconds
# Revision: 0
# Processed by: cddbd v1.5.2PL0 Copyright (c) Steve Scherf et al.
# Submitted via: dBpowerAMP V12.0
#
DISCID=e60baf11
DTITLE=Hal Leonard - Chicago Blues Play Along Vol 1
DYEAR=1900
DGENRE=Instructional
TTITLE0=All Your Love (I Miss Loving)
TTITLE1=Easy Baby
TTITLE2=I Ain't Got You
TTITLE3=I'm Your Hoochie Coochie Man
TTITLE4=Killing Floor
TTITLE5=Mary Had A Little Lamb
TTITLE6=Messin' With The Kid
TTITLE7=Sweet Home Chicago
TTITLE8=All Your Love (I Miss Loving) - Split
TTITLE9=Easy Baby - Split
TTITLE10=I Ain't Got You - Split
TTITLE11=I'm Your Hoochie Coochie Man - Split
TTITLE12=Killing Floor - Split
TTITLE13=Mary Had A Little Lamb - Split
TTITLE14=Messin' With The Kid - Split
TTITLE15=Sweet Home Chicago - Split
TTITLE16=DATA
EXTD=
EXTT0=
EXTT1=
EXTT2=
EXTT3=
EXTT4=
EXTT5=
EXTT6=
EXTT7=
EXTT8=
EXTT9=
EXTT10=
EXTT11=
EXTT12=
EXTT13=
EXTT14=
EXTT15=
EXTT16=
PLAYORDER=
